<mxfile host="app.diagrams.net" modified="2024-03-23T11:55:09.722Z" agent="Mozilla/5.0 (Macintosh; Intel Mac OS X 10_15_7) AppleWebKit/537.36 (KHTML, like Gecko) Chrome/121.0.0.0 Safari/537.36" version="24.0.0" etag="QR2aJeHY1NS0tmgr56po" type="github">
  <diagram name="Page-1" id="PbctEbJeod6kHTm29f5o">
    <mxGraphModel>
      <root>
        <mxCell id="0" />
        <mxCell id="1" parent="0" />
      </root>
    </mxGraphModel>
  </diagram>
</mxfile>
